<svg width="1440" height="900" viewBox="0 0 1440 900" fill="none" xmlns="http://www.w3.org/2000/svg">
<path d="M1457.81 387.233C1406.04 417.693 1361.85 370.242 1318.32 341.723C1232.96 285.804 1108.38 372.394 1047.29 260.423C979.653 136.448 1045.45 12.265 1174.54 20.1579C1535.76 42.2494 1504.81 359.576 1457.81 387.233Z" fill="#FFB78E"/>
<path d="M142.083 257.8C129.111 316.447 64.2697 316.467 13.7321 328.906C-85.355 353.292 -106.842 503.475 -230.43 471.913C-367.26 436.959 -413.336 304.189 -319.613 215.075C-57.345 -34.2913 153.861 204.551 142.083 257.8Z" fill="#7CF2B8"/>
<path d="M1094.64 932.951C1061.25 982.88 1000.83 959.344 949.228 952.575C848.051 939.301 773.476 1071.42 669.796 997.118C555.011 914.846 560.313 774.409 680.005 725.428C1014.94 588.369 1124.96 887.619 1094.64 932.951Z" fill="black"/>
<path d="M806.659 697.43C806.659 706.808 796.674 714.408 784.36 714.408C772.045 714.408 762.06 706.808 762.06 697.43C762.06 688.052 772.045 680.452 784.36 680.452C796.674 680.452 806.659 688.052 806.659 697.43Z" fill="#7CF2B8"/>
<path d="M834.266 664.535C834.266 669.224 829.988 673.024 824.708 673.024C819.432 673.024 815.15 669.224 815.15 664.535C815.15 659.846 819.428 656.046 824.708 656.046C829.988 656.046 834.266 659.846 834.266 664.535Z" fill="#7CF2B8"/>
</svg>
