<svg width="50" height="50" viewBox="0 0 50 50" fill="none" xmlns="http://www.w3.org/2000/svg">
<path d="M6.67125 0H50L43.9477 50H0L6.67125 0Z" fill="#020202"/>
<path d="M14.846 20.648C13.8717 20.648 13.0022 20.4753 12.2375 20.13C11.4852 19.7847 10.8993 19.2975 10.48 18.6685C10.0607 18.0395 9.851 17.3242 9.851 16.5225V11.2315H13.662V16.467C13.662 16.874 13.773 17.1947 13.995 17.429C14.2293 17.651 14.5192 17.762 14.8645 17.762C15.1975 17.762 15.4688 17.651 15.6785 17.429C15.9005 17.1947 16.0115 16.874 16.0115 16.467V11.2315H19.7485V16.5225C19.7485 17.3365 19.5388 18.058 19.1195 18.687C18.7125 19.3037 18.139 19.7847 17.399 20.13C16.659 20.4753 15.808 20.648 14.846 20.648Z" fill="#7CF2B8"/>
<path d="M21.5417 11.361H25.2602V13.248C25.9755 11.8173 27.1102 11.102 28.6642 11.102C29.8482 11.102 30.7732 11.5275 31.4392 12.3785C32.1175 13.2172 32.4567 14.3827 32.4567 15.875V20.5H28.5717V15.4865C28.5717 14.9562 28.4545 14.5492 28.2202 14.2655C27.9982 13.9818 27.6837 13.84 27.2767 13.84C26.9807 13.84 26.6909 13.9387 26.4072 14.136C26.1235 14.321 25.8892 14.5923 25.7042 14.95C25.5315 15.3077 25.4452 15.7147 25.4452 16.171V20.5H21.5417V11.361Z" fill="#7CF2B8"/>
<path d="M37.4984 20.648C36.4624 20.648 35.6546 20.315 35.0749 19.649C34.4952 18.983 34.2054 18.0765 34.2054 16.9295V11.2315H38.1274V16.763C38.1274 17.0467 38.2014 17.2687 38.3494 17.429C38.5097 17.577 38.7132 17.651 38.9599 17.651C39.2066 17.651 39.4594 17.577 39.7184 17.429L39.9219 20.0005C39.6506 20.2102 39.2929 20.3705 38.8489 20.4815C38.4172 20.5925 37.9671 20.648 37.4984 20.648ZM36.1664 9.844C35.5867 9.844 35.0934 9.66517 34.6864 9.3075C34.2917 8.9375 34.0944 8.48733 34.0944 7.957C34.0944 7.42667 34.3041 6.98267 34.7234 6.625C35.1427 6.26733 35.6237 6.0885 36.1664 6.0885C36.7337 6.0885 37.2209 6.2735 37.6279 6.6435C38.0472 7.0135 38.2569 7.45133 38.2569 7.957C38.2569 8.49967 38.0472 8.94983 37.6279 9.3075C37.2086 9.66517 36.7214 9.844 36.1664 9.844Z" fill="#7CF2B8"/>
<path d="M13.181 44.648C12.1327 44.648 11.3187 44.3212 10.739 43.6675C10.1717 43.0015 9.888 42.095 9.888 40.948V32.3085L13.7915 31.735V40.6705C13.7915 41.0158 13.8717 41.2687 14.032 41.429C14.2047 41.577 14.5007 41.651 14.92 41.651C15.2283 41.651 15.5305 41.577 15.8265 41.429L15.956 44.019C15.1297 44.4383 14.2047 44.648 13.181 44.648Z" fill="#7CF2B8"/>
<path d="M20.1727 44.648C19.1367 44.648 18.3289 44.315 17.7492 43.649C17.1695 42.983 16.8797 42.0765 16.8797 40.9295V35.2315H20.8017V40.763C20.8017 41.0467 20.8757 41.2687 21.0237 41.429C21.184 41.577 21.3875 41.651 21.6342 41.651C21.8809 41.651 22.1337 41.577 22.3927 41.429L22.5962 44.0005C22.3249 44.2102 21.9672 44.3705 21.5232 44.4815C21.0915 44.5925 20.6414 44.648 20.1727 44.648ZM18.8407 33.844C18.261 33.844 17.7677 33.6652 17.3607 33.3075C16.966 32.9375 16.7687 32.4873 16.7687 31.957C16.7687 31.4267 16.9784 30.9827 17.3977 30.625C17.817 30.2673 18.298 30.0885 18.8407 30.0885C19.408 30.0885 19.8952 30.2735 20.3022 30.6435C20.7215 31.0135 20.9312 31.4513 20.9312 31.957C20.9312 32.4997 20.7215 32.9498 20.3022 33.3075C19.8829 33.6652 19.3957 33.844 18.8407 33.844Z" fill="#7CF2B8"/>
<path d="M24.232 37.5255H23.0665V35.2315H24.232V34.4545C24.232 33.0855 24.5588 32.0495 25.2125 31.3465C25.8785 30.6435 26.8035 30.292 27.9875 30.292C28.9372 30.292 29.819 30.5325 30.633 31.0135L30.5035 33.511C29.7882 33.2273 29.19 33.0855 28.709 33.0855C28.339 33.0855 28.0553 33.178 27.858 33.363C27.6607 33.5357 27.562 33.7885 27.562 34.1215C27.562 34.4422 27.6668 34.8122 27.8765 35.2315H30.4665V37.5255H28.1355V44.5H24.232V37.5255Z" fill="#7CF2B8"/>
<path d="M36.1433 44.648C35.1196 44.648 34.2069 44.4445 33.4053 44.0375C32.6159 43.6182 31.9993 43.0508 31.5553 42.3355C31.1113 41.6078 30.8893 40.7877 30.8893 39.875C30.8893 38.9377 31.1174 38.1052 31.5738 37.3775C32.0301 36.6498 32.6468 36.0887 33.4238 35.694C34.2008 35.2993 35.0641 35.102 36.0138 35.102C36.9264 35.102 37.7034 35.3055 38.3448 35.7125C38.9984 36.1072 39.4856 36.6498 39.8063 37.3405C40.1269 38.0188 40.2873 38.7835 40.2873 39.6345C40.2873 39.8565 40.2749 40.0168 40.2503 40.1155L34.7003 40.837C34.8483 41.2687 35.0888 41.5832 35.4218 41.7805C35.7548 41.9655 36.1926 42.058 36.7353 42.058C37.5739 42.058 38.4804 41.8422 39.4548 41.4105L39.9173 43.8895C38.7703 44.3952 37.5123 44.648 36.1433 44.648ZM37.4198 38.506C37.2224 37.729 36.7538 37.3405 36.0138 37.3405C35.5698 37.3405 35.2183 37.507 34.9593 37.84C34.7003 38.173 34.5646 38.6047 34.5523 39.135L37.4198 38.506Z" fill="#7CF2B8"/>
</svg>
